General

Complete name                    : 18.Year.Old.Virgin-UNRATED{2009}DVDRip.aaaevilacharya.mkv
Format                           : Matroska
File size                        : 693 MiB
Duration                         : 1h 26mn
Overall bit rate                 : 1 122 Kbps
Movie name                       : 18.year.old.virgin-aaaevilacharya{TiRG}
Encoded date                     : UTC 2011-01-05 01:04:33


Video

ID                               : 1
Format                           : MPEG-4 Visual
Format profile                   : Simple@L3
Format settings, BVOP            : No
Format settings, QPel            : No
Format settings, GMC             : No warppoints
Format settings, Matrix          : Default (H.263)
Codec ID                         : XVID
Codec ID/Hint                    : XviD
Duration                         : 1h 26mn
Bit rate                         : 972 Kbps
Width                            : 720 pixels
Height                           : 384 pixels
Display aspect ratio             : 2.35:1
Original display aspect ratio    : 16:9
Frame rate                       : 23.976 fps
Color space                      : YUV
Chroma subsampling               : 4:2:0
Bit depth                        : 8 bits
Scan type                        : Progressive
Bits/(Pixel*Frame)               : 0.153
Stream size                      : 600 MiB (87%)
Title                            : 18.year.old.virgin-aaaevilacharya{TiRG}

Language                         : English

Audio

ID                               : 2
Format                           : MPEG Audio
Format version                   : Version 1
Format profile                   : Layer 3
Mode                             : Joint stereo
Codec ID                         : A_MPEG/L3
Codec ID/Hint                    : MP3
Duration                         : 1h 26mn
Bit rate mode                    : Constant
Bit rate                         : 128 Kbps
Channel(s)                       : 2 channels
Sampling rate                    : 48.0 KHz
Stream size                      : 79.0 MiB (11%)
Title                            : 18.year.old.virgin-aaaevilacharya{TiRG}

Language                         : English

SCREENSHOTS
 
http://img816.imageshack.us/img816/5862/vlcsnap2011010420h29m14.png 
http://img222.imageshack.us/img222/3937/t7oav410317871041985.jpg 
http://img840.imageshack.us/img840/7230/vlcsnap2011010420h15m39.png 
http://img412.imageshack.us/img412/1184/vlcsnap2011010420h17m36.png 
http://img205.imageshack.us/img205/7938/vlcsnap2011010420h18m07.png 
http://img684.imageshack.us/img684/9889/vlcsnap2011010420h18m55.png 
http://img51.imageshack.us/img51/515/vlcsnap2011010420h23m22.png 
http://img143.imageshack.us/img143/2760/vlcsnap2011010420h26m03.png 
http://img263.imageshack.us/img263/7295/vlcsnap2011010420h28m20.png 
http://img593.imageshack.us/img593/9110/vlcsnap2011010420h28m26.png 
http://img828.imageshack.us/img828/1588/vlcsnap2011010420h29m04.png
